<svg width="21" height="20" viewBox="0 0 21 20" fill="none" xmlns="http://www.w3.org/2000/svg">
<path d="M14.0547 0.520874C13.0555 0.520656 12.0702 0.743341 11.1777 1.17108C10.2852 1.59883 9.51027 2.21973 8.91508 2.98405C8.31989 3.74836 7.92096 4.63483 7.75026 5.57241C7.57955 6.51 7.64183 7.47263 7.93209 8.38317L0.546875 15.4167V19.4792H4.8125L12.1977 12.4457C13.0778 12.7001 14.0051 12.7708 14.9165 12.653C15.8279 12.5353 16.7018 12.2318 17.4789 11.7632C18.256 11.2946 18.9179 10.672 19.4194 9.93782C19.921 9.20361 20.2505 8.37505 20.3854 7.5086C20.5203 6.64215 20.4575 5.75818 20.2013 4.91693C19.9451 4.07569 19.5014 3.29694 18.9006 2.63375C18.2998 1.97057 17.5559 1.43854 16.7196 1.07392C15.8834 0.709306 14.9744 0.520671 14.0547 0.520874ZM14.0547 11.3542C13.5652 11.354 13.0785 11.2851 12.6101 11.1497L11.7946 10.9141L11.1925 11.4876L8.93096 13.6414L7.95058 12.7084L6.94531 13.6658L7.9257 14.5995L6.79815 15.6733L5.81777 14.7396L4.8125 15.697L5.79288 16.6307L4.22384 18.125H1.96875V15.9773L8.93736 9.34056L9.54023 8.76707L9.29283 7.99046C8.98896 7.03644 9.0087 6.01546 9.34924 5.07275C9.68978 4.13003 10.3338 3.31359 11.1896 2.73956C12.0455 2.16553 13.0696 1.86314 14.1163 1.8754C15.163 1.88766 16.179 2.21396 17.0198 2.80787C17.8606 3.40178 18.4833 4.23307 18.7994 5.18347C19.1155 6.13388 19.1088 7.15502 18.7804 8.10162C18.452 9.04823 17.8185 9.87211 16.9701 10.4561C16.1216 11.04 15.1015 11.3543 14.0547 11.3542Z" fill="#1099E1"/>
<path d="M14.7656 7.29171C15.5509 7.29171 16.1875 6.68543 16.1875 5.93754C16.1875 5.18966 15.5509 4.58337 14.7656 4.58337C13.9803 4.58337 13.3438 5.18966 13.3438 5.93754C13.3438 6.68543 13.9803 7.29171 14.7656 7.29171Z" fill="#1099E1"/>
</svg>
