<svg width="6" height="12" viewBox="0 0 6 12" fill="none" xmlns="http://www.w3.org/2000/svg">
<path d="M5.86643 0.129597C5.95206 0.214319 6 0.328059 6 0.446497C6 0.564936 5.95206 0.678675 5.86643 0.763397L1.08274 5.50646L5.86643 10.2486C5.95206 10.3333 6 10.447 6 10.5655C6 10.6839 5.95206 10.7977 5.86643 10.8824C5.82481 10.9237 5.77505 10.9565 5.72008 10.979C5.66512 11.0014 5.60606 11.0129 5.5464 11.0129C5.48674 11.0129 5.42769 11.0014 5.37272 10.979C5.31776 10.9565 5.268 10.9237 5.22638 10.8824L0.13935 5.8376C0.050004 5.749 0 5.63018 0 5.50646C0 5.38275 0.050004 5.26392 0.13935 5.17533L5.22638 0.130546C5.268 0.0892318 5.31776 0.0563948 5.37272 0.0339732C5.42769 0.0115517 5.48674 0 5.5464 0C5.60606 0 5.66512 0.0115517 5.72008 0.0339732C5.77505 0.0563948 5.82481 0.0892318 5.86643 0.130546V0.129597Z" fill="#707070"/>
</svg>
