<svg width="22" height="22" viewBox="0 0 22 22" fill="none" xmlns="http://www.w3.org/2000/svg">
<g id="icons">
<path id="Vector" d="M19.5108 2.21589C19.3858 2.0844 19.2373 1.98008 19.0739 1.9089C18.9105 1.83773 18.7353 1.80109 18.5584 1.80109C18.3815 1.80109 18.2063 1.83773 18.0429 1.9089C17.8795 1.98008 17.731 2.0844 17.6061 2.21589L11.0005 9.13759L4.39486 2.2017C4.2698 2.07039 4.12133 1.96622 3.95792 1.89515C3.79452 1.82408 3.61938 1.78751 3.44252 1.78751C3.26565 1.78751 3.09052 1.82408 2.92711 1.89515C2.76371 1.96622 2.61524 2.07039 2.49018 2.2017C2.36511 2.33302 2.26591 2.48891 2.19822 2.66049C2.13054 2.83206 2.0957 3.01595 2.0957 3.20166C2.0957 3.38737 2.13054 3.57126 2.19822 3.74284C2.26591 3.91441 2.36511 4.0703 2.49018 4.20162L9.09578 11.1375L2.49018 18.0734C2.36511 18.2047 2.26591 18.3606 2.19822 18.5322C2.13054 18.7038 2.0957 18.8876 2.0957 19.0733C2.0957 19.2591 2.13054 19.443 2.19822 19.6145C2.26591 19.7861 2.36511 19.942 2.49018 20.0733C2.61524 20.2046 2.76371 20.3088 2.92711 20.3799C3.09052 20.4509 3.26565 20.4875 3.44252 20.4875C3.61938 20.4875 3.79452 20.4509 3.95792 20.3799C4.12133 20.3088 4.2698 20.2046 4.39486 20.0733L11.0005 13.1374L17.6061 20.0733C17.7311 20.2046 17.8796 20.3088 18.043 20.3799C18.2064 20.4509 18.3815 20.4875 18.5584 20.4875C18.7353 20.4875 18.9104 20.4509 19.0738 20.3799C19.2372 20.3088 19.3857 20.2046 19.5108 20.0733C19.6358 19.942 19.735 19.7861 19.8027 19.6145C19.8704 19.443 19.9052 19.2591 19.9052 19.0733C19.9052 18.8876 19.8704 18.7038 19.8027 18.5322C19.735 18.3606 19.6358 18.2047 19.5108 18.0734L12.9051 11.1375L19.5108 4.20162C20.0241 3.66264 20.0241 2.75487 19.5108 2.21589Z" fill="#6A798E"/>
</g>
</svg>
