<svg width="21" height="20" viewBox="0 0 21 20" fill="none" xmlns="http://www.w3.org/2000/svg">
<path d="M20.6493 18.9943C19.0436 16.2196 16.5228 14.2726 13.5938 13.4469C15.0178 12.7231 16.1566 11.5407 16.8264 10.0904C17.4963 8.64013 17.6581 7.00653 17.286 5.45301C16.9138 3.89949 16.0292 2.5166 14.7749 1.52731C13.5206 0.538021 11.9697 0 10.3722 0C8.77474 0 7.22382 0.538021 5.96952 1.52731C4.71523 2.5166 3.83068 3.89949 3.45849 5.45301C3.08631 7.00653 3.24818 8.64013 3.91802 10.0904C4.58785 11.5407 5.72661 12.7231 7.15066 13.4469C4.2216 14.2716 1.70082 16.2186 0.0951137 18.9943C0.0510231 19.0636 0.021418 19.1412 0.00807929 19.2223C-0.00525937 19.3034 -0.00205575 19.3864 0.0174971 19.4662C0.03705 19.546 0.0725481 19.621 0.121856 19.6868C0.171164 19.7526 0.233263 19.8076 0.304417 19.8488C0.375571 19.8899 0.454309 19.9162 0.535895 19.9261C0.617481 19.936 0.700228 19.9293 0.779159 19.9064C0.858091 19.8835 0.931574 19.8449 0.99519 19.7929C1.05881 19.7408 1.11124 19.6765 1.14933 19.6037C3.10035 16.2328 6.54738 14.2208 10.3722 14.2208C14.1971 14.2208 17.6441 16.2328 19.5951 19.6037C19.6332 19.6765 19.6856 19.7408 19.7493 19.7929C19.8129 19.8449 19.8864 19.8835 19.9653 19.9064C20.0442 19.9293 20.127 19.936 20.2086 19.9261C20.2901 19.9162 20.3689 19.8899 20.44 19.8488C20.5112 19.8076 20.5733 19.7526 20.6226 19.6868C20.6719 19.621 20.7074 19.546 20.7269 19.4662C20.7465 19.3864 20.7497 19.3034 20.7364 19.2223C20.723 19.1412 20.6934 19.0636 20.6493 18.9943ZM4.4816 7.11147C4.4816 5.94642 4.82708 4.80753 5.47435 3.83882C6.12162 2.87011 7.04161 2.11509 8.11798 1.66924C9.19435 1.2234 10.3788 1.10674 11.5214 1.33403C12.6641 1.56133 13.7137 2.12235 14.5375 2.94617C15.3613 3.76999 15.9224 4.8196 16.1497 5.96227C16.377 7.10494 16.2603 8.28935 15.8145 9.36572C15.3686 10.4421 14.6136 11.3621 13.6449 12.0093C12.6762 12.6566 11.5373 13.0021 10.3722 13.0021C8.81051 13.0002 7.3133 12.379 6.209 11.2747C5.1047 10.1704 4.48348 8.67319 4.4816 7.11147Z" fill="#1099E1"/>
</svg>
