<svg width="15" height="14" viewBox="0 0 15 14" fill="none" xmlns="http://www.w3.org/2000/svg">
<path d="M12.95 1.29057C12.8644 1.29221 12.7783 1.30445 12.6925 1.32837C12.4278 1.4022 12.2144 1.57485 12.0537 1.80382C8.54663 3.00341 5.22129 4.10969 1.74573 5.28503C0.504665 5.7047 -0.273023 6.96382 0.0892897 8.13263C0.451696 9.30141 1.78748 9.84797 3.02788 9.42141L3.02782 9.42147C6.44688 8.2459 9.72857 7.15623 13.1878 5.98745C13.2053 5.9944 13.2231 6.00024 13.2408 6.00648C13.1589 6.10278 13.1087 6.22947 13.1087 6.36873C13.1087 6.66942 13.3409 6.91319 13.6273 6.91319C13.9136 6.91319 14.1459 6.66939 14.1459 6.36873C14.1459 6.22698 14.0939 6.09835 14.0094 6.00149C14.4079 5.84186 14.6767 5.44808 14.8074 4.98765C14.9495 4.48703 14.9481 3.88338 14.7891 3.26565C14.6301 2.64786 14.3414 2.12476 13.9785 1.76572C13.7063 1.49647 13.3765 1.31324 13.0355 1.29224C13.0071 1.29053 12.9786 1.28994 12.95 1.29047V1.29057ZM12.9656 1.9035C12.9799 1.90328 12.9943 1.90366 13.0086 1.90465C13.1826 1.9164 13.3779 2.01425 13.578 2.21211C13.8447 2.47592 14.0917 2.90658 14.2254 3.42571C14.3385 3.8654 14.3504 4.29186 14.2882 4.63492H12.6388C12.5289 4.43125 12.4353 4.1968 12.3693 3.94067C12.2357 3.42151 12.2429 2.9204 12.3469 2.55382C12.451 2.18723 12.632 1.97969 12.8424 1.92103C12.8826 1.90988 12.924 1.90397 12.9655 1.90344L12.9656 1.9035ZM11.7651 2.46273C11.6459 2.94619 11.6553 3.51709 11.8054 4.10073C11.8522 4.28306 11.912 4.46141 11.9844 4.63426H7.25882C5.24616 5.31486 3.32582 5.9634 2.15413 6.35987C1.42788 6.6055 1.04935 7.25916 1.20395 7.75745C1.35851 8.25581 2.03463 8.55588 2.75863 8.30706C4.84895 7.5888 8.9777 6.19426 12.2218 5.0979C12.3393 5.28844 12.4718 5.45776 12.6162 5.60069C12.6183 5.60261 12.6204 5.60458 12.6224 5.60659C9.34507 6.71411 5.07057 8.15744 2.94026 8.88948C1.97691 9.22056 0.927008 8.84571 0.648258 7.94711C0.369508 7.0485 1.01085 6.10239 1.97445 5.7764C4.10116 5.05682 8.4807 3.57809 11.7651 2.46273ZM13.627 8.37571C13.0974 10.4513 12.3612 10.1631 12.3612 11.378C12.3612 12.1117 12.9282 12.7072 13.627 12.7072C14.3258 12.7072 14.8929 12.1118 14.8929 11.378C14.8929 10.0665 14.1661 10.4882 13.627 8.37571Z" fill="white"/>
</svg>
