<svg width="14" height="14" viewBox="0 0 14 14" fill="none" xmlns="http://www.w3.org/2000/svg">
<path d="M1.83308 12.5708C1.50085 12.5708 1.22352 12.4541 1.00108 12.2205C0.778631 11.9869 0.667168 11.6955 0.666687 11.3461V1.66221C0.666687 1.31337 0.77815 1.02217 1.00108 0.788608C1.224 0.555042 1.50133 0.438006 1.83308 0.4375H6.45819V1.19583H1.83308C1.72233 1.19583 1.6205 1.24437 1.52758 1.34143C1.43465 1.4385 1.38843 1.54542 1.38891 1.66221V11.3461C1.38891 11.4624 1.43513 11.5693 1.52758 11.6669C1.62002 11.7645 1.72185 11.813 1.83308 11.8125H6.45819V12.5708H1.83308ZM9.66702 9.18715L9.16002 8.64191L10.8349 6.88333H4.41647V6.125H10.8349L9.1593 4.36567L9.66702 3.82118L12.2222 6.50417L9.66702 9.18715Z" fill="white"/>
</svg>
