<svg width="22" height="22" viewBox="0 0 22 22" fill="none" xmlns="http://www.w3.org/2000/svg">
<path fill-rule="evenodd" clip-rule="evenodd" d="M21.8576 3.64503C21.967 3.81109 22.0157 4.00982 21.9956 4.20766C21.9754 4.40551 21.8877 4.59033 21.747 4.73094L11.1619 15.3159C11.0536 15.4242 10.9185 15.5017 10.7704 15.5405L6.36155 16.692C6.21581 16.7301 6.06267 16.7293 5.91732 16.6898C5.77197 16.6504 5.63946 16.5735 5.53297 16.467C5.42647 16.3605 5.34967 16.228 5.31021 16.0827C5.27074 15.9373 5.26997 15.7841 5.30798 15.6384L6.45942 11.2303C6.49303 11.0979 6.55644 10.9751 6.6448 10.871L17.2691 0.25258C17.431 0.090845 17.6505 0 17.8794 0C18.1082 0 18.3277 0.090845 18.4896 0.25258L21.747 3.50915C21.7884 3.55061 21.8254 3.59614 21.8576 3.64503ZM19.9151 4.11947L17.8794 2.08469L8.07143 11.8936L7.35178 14.6492L10.1072 13.9295L19.9151 4.11947Z" fill="#6A798E"/>
<path d="M19.9021 17.2018C20.2205 14.5935 20.3222 11.965 20.2062 9.34122C20.2036 9.2794 20.2144 9.21775 20.2379 9.16012C20.2614 9.10249 20.297 9.05011 20.3425 9.00625L21.4889 7.90755C21.5202 7.87736 21.5599 7.85648 21.6034 7.84742C21.6468 7.83836 21.692 7.84151 21.7336 7.85648C21.7752 7.87146 21.8114 7.89763 21.8378 7.93184C21.8642 7.96605 21.8798 8.00686 21.8826 8.04935C22.0984 11.166 22.0165 14.2949 21.638 17.3972C21.363 19.6549 19.471 21.4247 17.1258 21.6759C13.0545 22.108 8.94578 22.108 4.87442 21.6759C2.53038 21.4247 0.637212 19.6549 0.362265 17.3972C-0.120755 13.4395 -0.120755 9.44125 0.362265 5.48349C0.637212 3.22579 2.52922 1.45603 4.87442 1.20481C7.9645 0.876406 11.0779 0.796851 14.1818 0.966979C14.2262 0.970036 14.2688 0.98523 14.3045 1.01076C14.3402 1.03629 14.3675 1.07109 14.3832 1.11104C14.3989 1.15099 14.4023 1.1944 14.393 1.23615C14.3838 1.2779 14.3622 1.31624 14.3309 1.34661L13.1741 2.45424C13.1288 2.49751 13.0747 2.53142 13.0152 2.55389C12.9557 2.57636 12.892 2.58691 12.8281 2.58488C10.2379 2.5005 7.6448 2.59565 5.06897 2.86961C4.3163 2.94945 3.61368 3.27014 3.07463 3.77989C2.53557 4.28963 2.19156 4.95865 2.09816 5.67889C1.63104 9.50683 1.63104 13.3739 2.09816 17.2018C2.19156 17.9221 2.53557 18.5911 3.07463 19.1008C3.61368 19.6106 4.3163 19.9313 5.06897 20.0111C8.97764 20.4298 13.0226 20.4298 16.9324 20.0111C17.6851 19.9313 18.3877 19.6106 18.9268 19.1008C19.4658 18.5911 19.8087 17.9221 19.9021 17.2018Z" fill="#6A798E"/>
</svg>
