<svg width="16" height="15" viewBox="0 0 16 15" fill="none" xmlns="http://www.w3.org/2000/svg">
<g id="icons">
<path id="Vector" d="M13.2834 1.79057C13.1977 1.79221 13.1116 1.80445 13.0258 1.82837C12.7611 1.9022 12.5477 2.07485 12.3871 2.30382C8.87996 3.50341 5.55462 4.60969 2.07906 5.78503C0.837993 6.2047 0.0603054 7.46382 0.422618 8.63263C0.785024 9.80141 2.12081 10.348 3.36121 9.92141L3.36115 9.92147C6.78021 8.7459 10.0619 7.65623 13.5211 6.48745C13.5386 6.4944 13.5565 6.50024 13.5741 6.50648C13.4922 6.60278 13.442 6.72947 13.442 6.86873C13.442 7.16942 13.6742 7.41319 13.9606 7.41319C14.247 7.41319 14.4792 7.16939 14.4792 6.86873C14.4792 6.72698 14.4272 6.59835 14.3427 6.50149C14.7412 6.34186 15.01 5.94808 15.1407 5.48765C15.2828 4.98703 15.2815 4.38338 15.1225 3.76565C14.9635 3.14786 14.6747 2.62476 14.3118 2.26572C14.0396 1.99647 13.7099 1.81324 13.3689 1.79224C13.3404 1.79053 13.3119 1.78994 13.2834 1.79047V1.79057ZM13.2989 2.4035C13.3133 2.40328 13.3276 2.40366 13.3419 2.40465C13.5159 2.4164 13.7112 2.51425 13.9113 2.71211C14.178 2.97592 14.4251 3.40658 14.5587 3.92571C14.6719 4.3654 14.6837 4.79186 14.6216 5.13492H12.9721C12.8622 4.93125 12.7686 4.6968 12.7026 4.44067C12.569 3.92151 12.5762 3.4204 12.6803 3.05382C12.7843 2.68723 12.9653 2.47969 13.1757 2.42103C13.2159 2.40988 13.2573 2.40397 13.2989 2.40344L13.2989 2.4035ZM12.0985 2.96273C11.9792 3.44619 11.9886 4.01709 12.1388 4.60073C12.1855 4.78306 12.2454 4.96141 12.3178 5.13426H7.59215C5.57949 5.81486 3.65915 6.4634 2.48746 6.85987C1.76121 7.1055 1.38268 7.75916 1.53727 8.25745C1.69184 8.75581 2.36796 9.05588 3.09196 8.80706C5.18227 8.0888 9.31102 6.69426 12.5551 5.5979C12.6726 5.78844 12.8051 5.95776 12.9495 6.10069C12.9516 6.10261 12.9537 6.10458 12.9558 6.10659C9.6784 7.21411 5.4039 8.65744 3.27359 9.38948C2.31024 9.72056 1.26034 9.34571 0.981587 8.44711C0.702837 7.5485 1.34418 6.60239 2.30777 6.2764C4.43449 5.55682 8.81402 4.07809 12.0985 2.96273ZM13.9603 8.87571C13.4307 10.9513 12.6945 10.6631 12.6945 11.878C12.6945 12.6117 13.2616 13.2072 13.9603 13.2072C14.6591 13.2072 15.2262 12.6118 15.2262 11.878C15.2262 10.5665 14.4994 10.9882 13.9603 8.87571Z" fill="black"/>
</g>
</svg>
