<svg width="19" height="19" viewBox="0 0 19 19" fill="none" xmlns="http://www.w3.org/2000/svg">
<path d="M14.3376 7.82664V15.942C14.3376 16.1736 14.2942 16.4031 14.2097 16.6171C14.1253 16.8311 14.0015 17.0256 13.8455 17.1894C13.6895 17.3533 13.5043 17.4832 13.3004 17.5719C13.0966 17.6605 12.8781 17.7062 12.6574 17.7062H2.57629C2.13068 17.7062 1.70332 17.5203 1.38822 17.1894C1.07312 16.8586 0.896103 16.4099 0.896103 15.942V5.35676C0.896103 4.88886 1.07312 4.44013 1.38822 4.10928C1.70332 3.77843 2.13068 3.59256 2.57629 3.59256H9.61126M12.3214 0.769833H17.0259V5.7096M7.61687 10.6494L16.6899 1.12267" stroke="#6A798E" stroke-width="1.5" stroke-linecap="round" stroke-linejoin="round"/>
</svg>
