<svg width="23" height="23" viewBox="0 0 23 23" fill="none" xmlns="http://www.w3.org/2000/svg">
<path d="M11.0458 0.000236252C7.6691 0.0172519 4.34313 1.57214 2.17797 4.49883C-1.09531 8.92336 -0.593512 14.967 3.10844 18.7954L1.36291 21.1547L8.45135 20.0947L7.39122 13.0063L5.36918 15.7395C3.30293 13.1903 3.13216 9.47484 5.17418 6.71466C6.61211 4.77094 8.824 3.73791 11.0691 3.72624C11.8428 3.72215 12.6124 3.84028 13.3493 4.07625L13.0229 1.89422C11.926 1.67065 10.7968 1.6548 9.694 1.84749C6.9175 2.19071 4.35054 3.71864 2.74914 6.12319C4.42024 3.0346 7.61355 1.15828 11.0012 1.07269C11.7828 1.05308 12.564 1.12927 13.3271 1.29956L15.6056 0.958877C14.1459 0.307033 12.5906 -0.00768566 11.0459 0.000142464L11.0458 0.000236252ZM21.0269 1.03406L13.9386 2.09391L14.9986 9.18235L16.9264 6.57666C18.9047 9.1215 19.0401 12.7664 17.0289 15.4849C15.1436 18.0334 11.928 19.0155 9.05125 18.1833L9.35697 20.227C10.6975 20.485 12.079 20.4358 13.3977 20.0831C15.1531 19.8038 16.8356 19.0495 18.2334 17.8458C15.9273 20.4075 12.4858 21.4793 9.24536 20.8618L6.62974 21.2529C11.2718 23.3013 16.8673 21.9452 20.013 17.6933C23.2535 13.3131 22.7946 7.34597 19.1935 3.51221L21.027 1.03411L21.0269 1.03406Z" fill="black"/>
</svg>
