<svg width="24" height="23" viewBox="0 0 24 23" fill="none" xmlns="http://www.w3.org/2000/svg">
<path fill-rule="evenodd" clip-rule="evenodd" d="M1.76457 11.1399C1.76457 16.5525 5.50201 20.2403 9.70006 21.0031C9.81426 21.0239 9.92344 21.0681 10.0214 21.1332C10.1193 21.1983 10.2041 21.283 10.2708 21.3825C10.3376 21.482 10.385 21.5943 10.4104 21.713C10.4358 21.8317 10.4387 21.9546 10.4189 22.0745C10.3991 22.1944 10.357 22.309 10.2951 22.4118C10.2331 22.5147 10.1524 22.6037 10.0577 22.6737C9.96292 22.7438 9.85596 22.7936 9.74288 22.8203C9.6298 22.847 9.51283 22.8501 9.39863 22.8293C4.46901 21.9331 0 17.5696 0 11.1399C0 8.40695 1.18372 6.25898 2.56557 4.62667C3.55624 3.45666 4.68915 2.50537 5.60023 1.77812H2.82975C2.60518 1.77812 2.38982 1.68445 2.23103 1.51772C2.07223 1.35099 1.98303 1.12485 1.98303 0.88906C1.98303 0.653266 2.07223 0.427131 2.23103 0.2604C2.38982 0.0936687 2.60518 0 2.82975 0H7.91009C8.13466 0 8.35002 0.0936687 8.50881 0.2604C8.66761 0.427131 8.75681 0.653266 8.75681 0.88906V6.22342C8.75681 6.45921 8.66761 6.68535 8.50881 6.85208C8.35002 7.01881 8.13466 7.11248 7.91009 7.11248C7.68553 7.11248 7.47016 7.01881 7.31137 6.85208C7.15258 6.68535 7.06337 6.45921 7.06337 6.22342V2.94101L7.06167 2.94457C6.09302 3.70916 4.911 4.64623 3.88646 5.85713C2.67565 7.28673 1.76457 9.01684 1.76457 11.1399ZM20.5754 11.8601C20.5754 6.50436 16.9175 2.83966 12.7737 2.02172C12.6582 2.00115 12.5477 1.95662 12.4488 1.89076C12.3499 1.82489 12.2644 1.739 12.1974 1.63808C12.1305 1.53717 12.0833 1.42326 12.0587 1.30301C12.0341 1.18275 12.0325 1.05855 12.0541 0.937651C12.0757 0.816754 12.12 0.701582 12.1844 0.598854C12.2488 0.496126 12.3321 0.407899 12.4294 0.339321C12.5266 0.270742 12.6359 0.223185 12.7508 0.199424C12.8658 0.175663 12.9841 0.176174 13.0988 0.200928C17.9658 1.16111 22.34 5.49972 22.34 11.8601C22.34 14.593 21.1562 16.7392 19.7744 18.3733C18.7837 19.5433 17.6508 20.4946 16.7397 21.2219H19.5102C19.7348 21.2219 19.9501 21.3155 20.1089 21.4823C20.2677 21.649 20.3569 21.8751 20.3569 22.1109C20.3569 22.3467 20.2677 22.5728 20.1089 22.7396C19.9501 22.9063 19.7348 23 19.5102 23H14.4299C14.2053 23 13.9899 22.9063 13.8311 22.7396C13.6723 22.5728 13.5831 22.3467 13.5831 22.1109V16.7766C13.5831 16.5408 13.6723 16.3146 13.8311 16.1479C13.9899 15.9812 14.2053 15.8875 14.4299 15.8875C14.6544 15.8875 14.8698 15.9812 15.0286 16.1479C15.1874 16.3146 15.2766 16.5408 15.2766 16.7766V20.0572H15.28C16.2469 19.289 17.4307 18.3538 18.4535 17.1411C19.6643 15.7132 20.5754 13.9849 20.5754 11.8601Z" fill="#6A798E"/>
</svg>
