<svg width="14" height="14" viewBox="0 0 14 14" fill="none" xmlns="http://www.w3.org/2000/svg">
<path d="M1.83338 12.5708C1.50116 12.5708 1.22383 12.4541 1.00138 12.2205C0.778937 11.9869 0.667474 11.6955 0.666992 11.3461V1.66221C0.666992 1.31337 0.778455 1.02217 1.00138 0.788608C1.22431 0.555042 1.50164 0.438006 1.83338 0.4375H6.45849V1.19583H1.83338C1.72264 1.19583 1.62081 1.24437 1.52788 1.34143C1.43496 1.4385 1.38873 1.54542 1.38921 1.66221V11.3461C1.38921 11.4624 1.43544 11.5693 1.52788 11.6669C1.62033 11.7645 1.72216 11.813 1.83338 11.8125H6.45849V12.5708H1.83338ZM9.66733 9.18715L9.16033 8.64191L10.8352 6.88333H4.41677V6.125H10.8352L9.1596 4.36567L9.66733 3.82118L12.2225 6.50417L9.66733 9.18715Z" fill="white"/>
</svg>
