<svg width="14" height="14" viewBox="0 0 14 14" fill="none" xmlns="http://www.w3.org/2000/svg">
<g id="icons">
<path id="Vector" d="M6.41624 12.5708V11.8125H11.0421C11.1528 11.8125 11.2546 11.764 11.3476 11.6669C11.4405 11.5698 11.4867 11.4629 11.4862 11.3461V1.66221C11.4862 1.54593 11.44 1.43901 11.3476 1.34143C11.2551 1.24386 11.1533 1.19533 11.0421 1.19583H6.41624V0.4375H11.0413C11.3736 0.4375 11.6509 0.554536 11.8733 0.788608C12.0958 1.02268 12.2075 1.31388 12.2085 1.66221V11.3461C12.2085 11.695 12.0972 11.9862 11.8748 12.2197C11.6523 12.4533 11.3748 12.5703 11.0421 12.5708H6.41624ZM5.90346 9.18715L5.39574 8.64191L7.07129 6.88333H0.666626V6.125H7.07129L5.39574 4.36567L5.90274 3.82118L8.45868 6.50417L5.90346 9.18715Z" fill="white"/>
</g>
</svg>
