<svg width="20" height="20" viewBox="0 0 20 20" fill="none" xmlns="http://www.w3.org/2000/svg">
<g id="Icon">
<path id="Icon_2" d="M12.25 6C12.25 7.24264 11.2426 8.25 10 8.25C8.75736 8.25 7.75 7.24264 7.75 6C7.75 4.75736 8.75736 3.75 10 3.75C11.2426 3.75 12.25 4.75736 12.25 6ZM17.25 8C17.25 8.69036 16.6904 9.25 16 9.25C15.3096 9.25 14.75 8.69036 14.75 8C14.75 7.30964 15.3096 6.75 16 6.75C16.6904 6.75 17.25 7.30964 17.25 8ZM10 11.75C11.7949 11.75 13.25 13.2051 13.25 15V17.25H6.75V15C6.75 13.2051 8.20507 11.75 10 11.75ZM5.25 8C5.25 8.69036 4.69036 9.25 4 9.25C3.30964 9.25 2.75 8.69036 2.75 8C2.75 7.30964 3.30964 6.75 4 6.75C4.69036 6.75 5.25 7.30964 5.25 8ZM16.75 17.25V15C16.75 14.2235 16.6186 13.4768 16.3767 12.7814C17.44 12.9606 18.25 13.8857 18.25 15V17.25H16.75ZM1.75 17.25V15C1.75 13.8857 2.55999 12.9606 3.6233 12.7814C3.38139 13.4768 3.25 14.2235 3.25 15V17.25H1.75Z" fill="#111827" stroke="#0D7AAA" stroke-width="1.5"/>
</g>
</svg>
